<svg width="499" height="159" viewBox="0 0 499 159" fill="none" xmlns="http://www.w3.org/2000/svg">
<path d="M468.971 0.955762C470.247 -0.318587 472.311 -0.318587 473.583 0.955762L498.044 25.4294C498.977 26.3627 499.257 27.7662 498.752 28.9856C498.246 30.2048 497.059 31 495.738 31H3.26143C1.46019 31 0 29.539 0 27.7368C0 25.9346 1.46019 24.4736 3.26143 24.4736H487.865L468.971 5.57054C467.699 4.29622 467.699 2.23009 468.971 0.955762Z" fill="#00A3FF"/>
<path d="M46.1719 119H32.1562V112.109H31.9688C28.75 117.484 23.9844 120.172 17.6719 120.172C13.0156 120.172 9.34375 118.859 6.65625 116.234C4 113.578 2.67188 110.047 2.67188 105.641C2.67188 96.3281 8.1875 90.9531 19.2188 89.5156L32.25 87.7812C32.25 82.5312 29.4062 79.9062 23.7188 79.9062C18 79.9062 12.5625 81.6094 7.40625 85.0156V73.8594C9.46875 72.7969 12.2812 71.8594 15.8438 71.0469C19.4375 70.2344 22.7031 69.8281 25.6406 69.8281C39.3281 69.8281 46.1719 76.6562 46.1719 90.3125V119ZM32.25 99.5V96.2656L23.5312 97.3906C18.7188 98.0156 16.3125 100.188 16.3125 103.906C16.3125 105.594 16.8906 106.984 18.0469 108.078C19.2344 109.141 20.8281 109.672 22.8281 109.672C25.6094 109.672 27.875 108.719 29.625 106.812C31.375 104.875 32.25 102.438 32.25 99.5ZM70.7831 119H55.9706V47.9375H70.7831V119ZM110.348 118.438C108.16 119.594 104.863 120.172 100.457 120.172C90.0194 120.172 84.8006 114.75 84.8006 103.906V81.9219H77.0194V71H84.8006V60.6406L99.5663 56.4219V71H110.348V81.9219H99.5663V101.328C99.5663 106.328 101.551 108.828 105.519 108.828C107.082 108.828 108.691 108.375 110.348 107.469V118.438ZM159.568 99.2188H128.256C128.756 106.188 133.146 109.672 141.427 109.672C146.709 109.672 151.349 108.422 155.349 105.922V116.609C150.912 118.984 145.146 120.172 138.052 120.172C130.302 120.172 124.287 118.031 120.006 113.75C115.724 109.438 113.584 103.438 113.584 95.75C113.584 87.7812 115.896 81.4688 120.521 76.8125C125.146 72.1562 130.834 69.8281 137.584 69.8281C144.584 69.8281 149.99 71.9062 153.802 76.0625C157.646 80.2188 159.568 85.8594 159.568 92.9844V99.2188ZM145.834 90.125C145.834 83.25 143.052 79.8125 137.49 79.8125C135.115 79.8125 133.052 80.7969 131.302 82.7656C129.584 84.7344 128.537 87.1875 128.162 90.125H145.834ZM197.773 84.3594C195.992 83.3906 193.914 82.9062 191.539 82.9062C188.32 82.9062 185.804 84.0938 183.992 86.4688C182.179 88.8125 181.273 92.0156 181.273 96.0781V119H166.461V71H181.273V79.9062H181.461C183.804 73.4062 188.023 70.1562 194.117 70.1562C195.679 70.1562 196.898 70.3438 197.773 70.7188V84.3594ZM238.791 117.266C235.447 119.203 230.619 120.172 224.306 120.172C216.931 120.172 210.962 117.938 206.4 113.469C201.837 109 199.556 103.234 199.556 96.1719C199.556 88.0156 201.994 81.5938 206.869 76.9062C211.775 72.1875 218.322 69.8281 226.509 69.8281C232.166 69.8281 236.259 70.5781 238.791 72.0781V84.6406C235.697 82.3281 232.244 81.1719 228.431 81.1719C224.181 81.1719 220.806 82.4219 218.306 84.9219C215.837 87.3906 214.603 90.8125 214.603 95.1875C214.603 99.4375 215.791 102.781 218.166 105.219C220.541 107.625 223.806 108.828 227.962 108.828C231.65 108.828 235.259 107.672 238.791 105.359V117.266ZM286.558 119H272.542V112.109H272.355C269.136 117.484 264.371 120.172 258.058 120.172C253.402 120.172 249.73 118.859 247.042 116.234C244.386 113.578 243.058 110.047 243.058 105.641C243.058 96.3281 248.574 90.9531 259.605 89.5156L272.636 87.7812C272.636 82.5312 269.792 79.9062 264.105 79.9062C258.386 79.9062 252.949 81.6094 247.792 85.0156V73.8594C249.855 72.7969 252.667 71.8594 256.23 71.0469C259.824 70.2344 263.089 69.8281 266.027 69.8281C279.714 69.8281 286.558 76.6562 286.558 90.3125V119ZM272.636 99.5V96.2656L263.917 97.3906C259.105 98.0156 256.699 100.188 256.699 103.906C256.699 105.594 257.277 106.984 258.433 108.078C259.621 109.141 261.214 109.672 263.214 109.672C265.996 109.672 268.261 108.719 270.011 106.812C271.761 104.875 272.636 102.438 272.636 99.5ZM327.669 84.3594C325.888 83.3906 323.81 82.9062 321.435 82.9062C318.216 82.9062 315.701 84.0938 313.888 86.4688C312.076 88.8125 311.169 92.0156 311.169 96.0781V119H296.357V71H311.169V79.9062H311.357C313.701 73.4062 317.919 70.1562 324.013 70.1562C325.576 70.1562 326.794 70.3438 327.669 70.7188V84.3594ZM347.687 113.422H347.499V119H332.687V47.9375H347.499V78.2188H347.687C351.343 72.625 356.546 69.8281 363.296 69.8281C369.484 69.8281 374.249 71.9531 377.593 76.2031C380.937 80.4531 382.609 86.2656 382.609 93.6406C382.609 101.641 380.656 108.062 376.749 112.906C372.843 117.75 367.624 120.172 361.093 120.172C355.187 120.172 350.718 117.922 347.687 113.422ZM347.265 93.1719V98.0938C347.265 101.188 348.156 103.75 349.937 105.781C351.718 107.812 353.999 108.828 356.781 108.828C360.156 108.828 362.765 107.531 364.609 104.938C366.484 102.312 367.421 98.6094 367.421 93.8281C367.421 89.8594 366.562 86.7656 364.843 84.5469C363.156 82.2969 360.734 81.1719 357.578 81.1719C354.609 81.1719 352.14 82.2812 350.171 84.5C348.234 86.7188 347.265 89.6094 347.265 93.1719ZM413.173 120.172C405.173 120.172 398.876 117.938 394.283 113.469C389.72 108.969 387.439 102.875 387.439 95.1875C387.439 87.25 389.814 81.0469 394.564 76.5781C399.314 72.0781 405.736 69.8281 413.829 69.8281C421.798 69.8281 428.048 72.0781 432.579 76.5781C437.111 81.0469 439.376 86.9688 439.376 94.3438C439.376 102.312 437.033 108.609 432.345 113.234C427.689 117.859 421.298 120.172 413.173 120.172ZM413.548 81.1719C410.048 81.1719 407.329 82.375 405.392 84.7812C403.454 87.1875 402.486 90.5938 402.486 95C402.486 104.219 406.204 108.828 413.642 108.828C420.736 108.828 424.283 104.094 424.283 94.625C424.283 85.6562 420.704 81.1719 413.548 81.1719ZM493.425 119H478.659V92.3281C478.659 84.8906 476.003 81.1719 470.691 81.1719C468.128 81.1719 466.019 82.1562 464.362 84.125C462.706 86.0938 461.878 88.5938 461.878 91.625V119H447.066V71H461.878V78.5938H462.066C465.597 72.75 470.737 69.8281 477.487 69.8281C488.112 69.8281 493.425 76.4219 493.425 89.6094V119Z" fill="#D2F9DF"/>
<path d="M11.5078 153H2.07422V136.195H11.1328V138.562H4.86328V143.32H10.6406V145.676H4.86328V150.645H11.5078V153ZM24.3989 153H21.6802V146.238C21.6802 143.996 20.8872 142.875 19.3013 142.875C18.4731 142.875 17.7895 143.188 17.2505 143.812C16.7114 144.43 16.4419 145.211 16.4419 146.156V153H13.7114V141H16.4419V142.992H16.4888C17.3872 141.477 18.6841 140.719 20.3794 140.719C21.6841 140.719 22.6802 141.145 23.3677 141.996C24.0552 142.84 24.3989 144.062 24.3989 145.664V153ZM36.458 153H33.8213V151.125H33.7744C32.9463 152.562 31.7314 153.281 30.1298 153.281C28.9502 153.281 28.0244 152.961 27.3525 152.32C26.6884 151.68 26.3564 150.832 26.3564 149.777C26.3564 147.512 27.6611 146.191 30.2705 145.816L33.833 145.312C33.833 143.602 33.0205 142.746 31.3955 142.746C29.9658 142.746 28.6767 143.238 27.5283 144.223V141.844C28.7939 141.094 30.2548 140.719 31.9111 140.719C34.9423 140.719 36.458 142.211 36.458 145.195V153ZM33.833 147.105L31.3134 147.457C30.5322 147.559 29.9423 147.75 29.5439 148.031C29.1533 148.305 28.958 148.789 28.958 149.484C28.958 149.992 29.1377 150.41 29.497 150.738C29.8642 151.059 30.3525 151.219 30.9619 151.219C31.79 151.219 32.4736 150.93 33.0127 150.352C33.5595 149.766 33.833 149.031 33.833 148.148V147.105ZM42.0717 151.266H42.0248V153H39.3061V135.234H42.0248V143.109H42.0717C43.0014 141.516 44.3608 140.719 46.1498 140.719C47.6655 140.719 48.8491 141.258 49.7006 142.336C50.56 143.406 50.9897 144.844 50.9897 146.648C50.9897 148.656 50.5092 150.266 49.5483 151.477C48.5873 152.68 47.2748 153.281 45.6108 153.281C44.0483 153.281 42.8686 152.609 42.0717 151.266ZM42.0014 146.496V147.984C42.0014 148.859 42.2788 149.602 42.8334 150.211C43.3959 150.82 44.1069 151.125 44.9663 151.125C45.9741 151.125 46.7631 150.734 47.3334 149.953C47.9116 149.164 48.2006 148.066 48.2006 146.66C48.2006 145.48 47.9311 144.559 47.392 143.895C46.8608 143.223 46.1381 142.887 45.2241 142.887C44.2553 142.887 43.4741 143.23 42.8803 143.918C42.2944 144.605 42.0014 145.465 42.0014 146.496ZM56.0175 153H53.287V135.234H56.0175V153ZM60.4594 138.48C60.0141 138.48 59.6312 138.336 59.3109 138.047C58.9984 137.758 58.8422 137.391 58.8422 136.945C58.8422 136.5 58.9984 136.129 59.3109 135.832C59.6312 135.535 60.0141 135.387 60.4594 135.387C60.9203 135.387 61.3109 135.535 61.6312 135.832C61.9516 136.129 62.1117 136.5 62.1117 136.945C62.1117 137.367 61.9516 137.73 61.6312 138.035C61.3109 138.332 60.9203 138.48 60.4594 138.48ZM61.807 153H59.0883V141H61.807V153ZM75.577 153H72.8583V146.238C72.8583 143.996 72.0653 142.875 70.4794 142.875C69.6512 142.875 68.9677 143.188 68.4286 143.812C67.8895 144.43 67.62 145.211 67.62 146.156V153H64.8895V141H67.62V142.992H67.6669C68.5653 141.477 69.8622 140.719 71.5575 140.719C72.8622 140.719 73.8583 141.145 74.5458 141.996C75.2333 142.84 75.577 144.062 75.577 145.664V153ZM89.347 152.039C89.347 156.445 87.1322 158.648 82.7025 158.648C81.14 158.648 79.7767 158.387 78.6127 157.863V155.379C79.9252 156.129 81.1712 156.504 82.3509 156.504C85.2025 156.504 86.6283 155.102 86.6283 152.297V150.984H86.5814C85.683 152.516 84.3314 153.281 82.5267 153.281C81.0658 153.281 79.8861 152.75 78.9877 151.688C78.097 150.617 77.6517 149.184 77.6517 147.387C77.6517 145.348 78.1322 143.727 79.0931 142.523C80.0541 141.32 81.3744 140.719 83.0541 140.719C84.64 140.719 85.8158 141.367 86.5814 142.664H86.6283V141H89.347V152.039ZM86.6517 147.504V145.945C86.6517 145.102 86.3705 144.383 85.808 143.789C85.2533 143.188 84.558 142.887 83.722 142.887C82.6908 142.887 81.8822 143.27 81.2962 144.035C80.7181 144.793 80.4291 145.855 80.4291 147.223C80.4291 148.402 80.7064 149.348 81.2611 150.059C81.8236 150.762 82.5658 151.113 83.4877 151.113C84.4252 151.113 85.1869 150.777 85.7728 150.105C86.3587 149.426 86.6517 148.559 86.6517 147.504ZM107.746 153H105.11V151.125H105.063C104.235 152.562 103.02 153.281 101.418 153.281C100.239 153.281 99.3128 152.961 98.6409 152.32C97.9769 151.68 97.6448 150.832 97.6448 149.777C97.6448 147.512 98.9495 146.191 101.559 145.816L105.121 145.312C105.121 143.602 104.309 142.746 102.684 142.746C101.254 142.746 99.9652 143.238 98.8167 144.223V141.844C100.082 141.094 101.543 140.719 103.2 140.719C106.231 140.719 107.746 142.211 107.746 145.195V153ZM105.121 147.105L102.602 147.457C101.821 147.559 101.231 147.75 100.832 148.031C100.442 148.305 100.246 148.789 100.246 149.484C100.246 149.992 100.426 150.41 100.785 150.738C101.153 151.059 101.641 151.219 102.25 151.219C103.078 151.219 103.762 150.93 104.301 150.352C104.848 149.766 105.121 149.031 105.121 148.148V147.105ZM116.255 152.332V149.461C116.513 149.695 116.818 149.906 117.169 150.094C117.529 150.281 117.908 150.441 118.306 150.574C118.704 150.699 119.103 150.797 119.501 150.867C119.9 150.938 120.267 150.973 120.603 150.973C121.775 150.973 122.646 150.777 123.216 150.387C123.794 149.996 124.083 149.43 124.083 148.688C124.083 148.289 123.986 147.945 123.79 147.656C123.603 147.359 123.337 147.09 122.993 146.848C122.65 146.605 122.243 146.375 121.775 146.156C121.314 145.93 120.818 145.695 120.286 145.453C119.716 145.148 119.185 144.84 118.693 144.527C118.2 144.215 117.771 143.871 117.404 143.496C117.044 143.113 116.759 142.684 116.548 142.207C116.345 141.73 116.243 141.172 116.243 140.531C116.243 139.742 116.419 139.059 116.771 138.48C117.13 137.895 117.599 137.414 118.177 137.039C118.763 136.656 119.427 136.375 120.169 136.195C120.911 136.008 121.669 135.914 122.443 135.914C124.2 135.914 125.482 136.113 126.286 136.512V139.266C125.333 138.578 124.107 138.234 122.607 138.234C122.193 138.234 121.779 138.273 121.365 138.352C120.958 138.43 120.591 138.559 120.263 138.738C119.943 138.918 119.681 139.148 119.478 139.43C119.275 139.711 119.173 140.051 119.173 140.449C119.173 140.824 119.251 141.148 119.408 141.422C119.564 141.695 119.79 141.945 120.087 142.172C120.392 142.398 120.759 142.621 121.189 142.84C121.626 143.051 122.13 143.281 122.7 143.531C123.286 143.836 123.837 144.156 124.353 144.492C124.876 144.828 125.333 145.199 125.724 145.605C126.122 146.012 126.435 146.465 126.661 146.965C126.896 147.457 127.013 148.02 127.013 148.652C127.013 149.504 126.841 150.223 126.497 150.809C126.154 151.395 125.689 151.871 125.103 152.238C124.525 152.605 123.857 152.871 123.099 153.035C122.341 153.199 121.54 153.281 120.697 153.281C120.415 153.281 120.068 153.258 119.654 153.211C119.247 153.172 118.829 153.109 118.4 153.023C117.97 152.945 117.564 152.848 117.181 152.73C116.798 152.613 116.49 152.48 116.255 152.332ZM139.787 153H137.068V151.102H137.021C136.232 152.555 135.006 153.281 133.342 153.281C130.506 153.281 129.088 151.578 129.088 148.172V141H131.806V147.891C131.806 150.047 132.638 151.125 134.302 151.125C135.107 151.125 135.767 150.828 136.283 150.234C136.806 149.641 137.068 148.863 137.068 147.902V141H139.787V153ZM142.108 152.625V150.105C143.123 150.879 144.244 151.266 145.471 151.266C147.112 151.266 147.932 150.781 147.932 149.812C147.932 149.539 147.862 149.309 147.721 149.121C147.58 148.926 147.389 148.754 147.147 148.605C146.912 148.457 146.631 148.324 146.303 148.207C145.983 148.09 145.623 147.957 145.225 147.809C144.733 147.613 144.287 147.406 143.889 147.188C143.498 146.969 143.17 146.723 142.905 146.449C142.647 146.168 142.451 145.852 142.319 145.5C142.186 145.148 142.119 144.738 142.119 144.27C142.119 143.691 142.256 143.184 142.53 142.746C142.803 142.301 143.17 141.93 143.631 141.633C144.092 141.328 144.615 141.102 145.201 140.953C145.787 140.797 146.393 140.719 147.018 140.719C148.127 140.719 149.119 140.887 149.994 141.223V143.602C149.151 143.023 148.182 142.734 147.088 142.734C146.744 142.734 146.432 142.77 146.151 142.84C145.877 142.91 145.643 143.008 145.447 143.133C145.252 143.258 145.1 143.41 144.99 143.59C144.881 143.762 144.826 143.953 144.826 144.164C144.826 144.422 144.881 144.641 144.99 144.82C145.1 145 145.26 145.16 145.471 145.301C145.69 145.434 145.947 145.559 146.244 145.676C146.549 145.785 146.897 145.906 147.287 146.039C147.803 146.25 148.264 146.465 148.67 146.684C149.084 146.902 149.436 147.152 149.725 147.434C150.014 147.707 150.237 148.027 150.393 148.395C150.549 148.754 150.627 149.184 150.627 149.684C150.627 150.293 150.487 150.824 150.205 151.277C149.924 151.73 149.549 152.105 149.08 152.402C148.612 152.699 148.069 152.918 147.451 153.059C146.842 153.207 146.197 153.281 145.518 153.281C144.205 153.281 143.069 153.062 142.108 152.625ZM159.065 152.871C158.534 153.137 157.835 153.27 156.967 153.27C154.639 153.27 153.475 152.152 153.475 149.918V143.133H151.471V141H153.475V138.223L156.194 137.449V141H159.065V143.133H156.194V149.133C156.194 149.844 156.323 150.352 156.581 150.656C156.839 150.961 157.268 151.113 157.87 151.113C158.331 151.113 158.729 150.98 159.065 150.715V152.871ZM170.14 153H167.503V151.125H167.456C166.628 152.562 165.413 153.281 163.812 153.281C162.632 153.281 161.706 152.961 161.034 152.32C160.37 151.68 160.038 150.832 160.038 149.777C160.038 147.512 161.343 146.191 163.952 145.816L167.515 145.312C167.515 143.602 166.702 142.746 165.077 142.746C163.648 142.746 162.359 143.238 161.21 144.223V141.844C162.476 141.094 163.937 140.719 165.593 140.719C168.624 140.719 170.14 142.211 170.14 145.195V153ZM167.515 147.105L164.995 147.457C164.214 147.559 163.624 147.75 163.226 148.031C162.835 148.305 162.64 148.789 162.64 149.484C162.64 149.992 162.82 150.41 163.179 150.738C163.546 151.059 164.034 151.219 164.644 151.219C165.472 151.219 166.155 150.93 166.695 150.352C167.241 149.766 167.515 149.031 167.515 148.148V147.105ZM174.359 138.48C173.914 138.48 173.531 138.336 173.211 138.047C172.898 137.758 172.742 137.391 172.742 136.945C172.742 136.5 172.898 136.129 173.211 135.832C173.531 135.535 173.914 135.387 174.359 135.387C174.82 135.387 175.211 135.535 175.531 135.832C175.851 136.129 176.011 136.5 176.011 136.945C176.011 137.367 175.851 137.73 175.531 138.035C175.211 138.332 174.82 138.48 174.359 138.48ZM175.707 153H172.988V141H175.707V153ZM189.477 153H186.758V146.238C186.758 143.996 185.965 142.875 184.379 142.875C183.551 142.875 182.867 143.188 182.328 143.812C181.789 144.43 181.52 145.211 181.52 146.156V153H178.789V141H181.52V142.992H181.567C182.465 141.477 183.762 140.719 185.457 140.719C186.762 140.719 187.758 141.145 188.445 141.996C189.133 142.84 189.477 144.062 189.477 145.664V153ZM201.536 153H198.899V151.125H198.852C198.024 152.562 196.809 153.281 195.208 153.281C194.028 153.281 193.102 152.961 192.43 152.32C191.766 151.68 191.434 150.832 191.434 149.777C191.434 147.512 192.739 146.191 195.348 145.816L198.911 145.312C198.911 143.602 198.098 142.746 196.473 142.746C195.044 142.746 193.755 143.238 192.606 144.223V141.844C193.872 141.094 195.333 140.719 196.989 140.719C200.02 140.719 201.536 142.211 201.536 145.195V153ZM198.911 147.105L196.391 147.457C195.61 147.559 195.02 147.75 194.622 148.031C194.231 148.305 194.036 148.789 194.036 149.484C194.036 149.992 194.215 150.41 194.575 150.738C194.942 151.059 195.43 151.219 196.04 151.219C196.868 151.219 197.551 150.93 198.09 150.352C198.637 149.766 198.911 149.031 198.911 148.148V147.105ZM207.15 151.266H207.103V153H204.384V135.234H207.103V143.109H207.15C208.079 141.516 209.439 140.719 211.228 140.719C212.743 140.719 213.927 141.258 214.778 142.336C215.638 143.406 216.068 144.844 216.068 146.648C216.068 148.656 215.587 150.266 214.626 151.477C213.665 152.68 212.353 153.281 210.689 153.281C209.126 153.281 207.946 152.609 207.15 151.266ZM207.079 146.496V147.984C207.079 148.859 207.357 149.602 207.911 150.211C208.474 150.82 209.185 151.125 210.044 151.125C211.052 151.125 211.841 150.734 212.411 149.953C212.989 149.164 213.278 148.066 213.278 146.66C213.278 145.48 213.009 144.559 212.47 143.895C211.939 143.223 211.216 142.887 210.302 142.887C209.333 142.887 208.552 143.23 207.958 143.918C207.372 144.605 207.079 145.465 207.079 146.496ZM221.095 153H218.365V135.234H221.095V153ZM234.326 147.738H226.147C226.178 148.848 226.518 149.703 227.166 150.305C227.822 150.906 228.721 151.207 229.861 151.207C231.143 151.207 232.318 150.824 233.389 150.059V152.25C232.295 152.938 230.85 153.281 229.053 153.281C227.287 153.281 225.9 152.738 224.893 151.652C223.893 150.559 223.393 149.023 223.393 147.047C223.393 145.18 223.943 143.66 225.045 142.488C226.154 141.309 227.529 140.719 229.17 140.719C230.811 140.719 232.08 141.246 232.979 142.301C233.877 143.355 234.326 144.82 234.326 146.695V147.738ZM231.701 145.816C231.693 144.84 231.463 144.082 231.01 143.543C230.557 142.996 229.932 142.723 229.135 142.723C228.354 142.723 227.69 143.008 227.143 143.578C226.604 144.148 226.272 144.895 226.147 145.816H231.701ZM263.718 136.195L259.112 153H255.96L252.761 141.246C252.628 140.746 252.546 140.199 252.515 139.605H252.468C252.429 140.16 252.335 140.699 252.187 141.223L248.976 153H245.753L241.054 136.195H244.112L247.159 148.5C247.284 149.016 247.362 149.555 247.394 150.117H247.452C247.483 149.719 247.593 149.18 247.78 148.5L251.226 136.195H254.097L257.284 148.594C257.394 149.016 257.476 149.516 257.53 150.094H257.577C257.601 149.703 257.69 149.188 257.847 148.547L260.835 136.195H263.718ZM269.976 153.281C268.125 153.281 266.644 152.723 265.535 151.605C264.433 150.48 263.882 148.992 263.882 147.141C263.882 145.125 264.457 143.551 265.605 142.418C266.761 141.285 268.316 140.719 270.269 140.719C272.144 140.719 273.605 141.27 274.652 142.371C275.699 143.473 276.222 145 276.222 146.953C276.222 148.867 275.656 150.402 274.523 151.559C273.398 152.707 271.882 153.281 269.976 153.281ZM270.105 142.887C269.043 142.887 268.203 143.258 267.585 144C266.968 144.742 266.66 145.766 266.66 147.07C266.66 148.328 266.972 149.32 267.597 150.047C268.222 150.766 269.058 151.125 270.105 151.125C271.175 151.125 271.996 150.77 272.566 150.059C273.144 149.348 273.433 148.336 273.433 147.023C273.433 145.703 273.144 144.684 272.566 143.965C271.996 143.246 271.175 142.887 270.105 142.887ZM285.48 143.59C285.152 143.332 284.68 143.203 284.062 143.203C283.258 143.203 282.586 143.566 282.047 144.293C281.508 145.02 281.238 146.008 281.238 147.258V153H278.52V141H281.238V143.473H281.285C281.551 142.629 281.957 141.973 282.504 141.504C283.059 141.027 283.676 140.789 284.355 140.789C284.848 140.789 285.223 140.863 285.48 141.012V143.59ZM289.653 153H286.922V135.234H289.653V153ZM303.634 153H300.915V150.961H300.868C299.993 152.508 298.645 153.281 296.825 153.281C295.349 153.281 294.165 152.746 293.274 151.676C292.392 150.598 291.95 149.133 291.95 147.281C291.95 145.297 292.438 143.707 293.415 142.512C294.399 141.316 295.708 140.719 297.341 140.719C298.958 140.719 300.134 141.367 300.868 142.664H300.915V135.234H303.634V153ZM300.95 147.516V145.945C300.95 145.094 300.673 144.371 300.118 143.777C299.563 143.184 298.856 142.887 297.997 142.887C296.981 142.887 296.181 143.266 295.595 144.023C295.017 144.781 294.728 145.832 294.728 147.176C294.728 148.395 295.005 149.359 295.56 150.07C296.122 150.773 296.876 151.125 297.821 151.125C298.751 151.125 299.505 150.785 300.083 150.105C300.661 149.418 300.95 148.555 300.95 147.516Z" fill="white"/>
<path d="M327.092 157.964C328.486 159.345 330.744 159.345 332.134 157.964C333.529 156.582 333.529 154.341 332.134 152.96L322.174 143.077H495.434C497.402 143.077 499 141.493 499 139.538C499 137.584 497.402 136 495.434 136H313.566C312.125 136 310.824 136.862 310.271 138.184C309.72 139.507 310.025 141.029 311.045 142.041L327.092 157.964Z" fill="#1FD44C"/>
</svg>
